<svg xmlns:dc="http://purl.org/dc/elements/1.1/" xmlns:cc="http://creativecommons.org/ns#" xmlns:rdf="http://www.w3.org/1999/02/22-rdf-syntax-ns#" xmlns:svg="http://www.w3.org/2000/svg" xmlns="http://www.w3.org/2000/svg" width="183.61238" height="34.127998" id="svg3005"><defs id="defs3007"/><g transform="translate(-64.57175,-143.37416)" id="layer1"><g id="flowRoot3013" style="font-size:36px;font-style:normal;font-variant:normal;font-weight:bold;font-stretch:normal;line-height:125%;letter-spacing:0px;word-spacing:0px;fill:#000000;fill-opacity:1;stroke:none"><path d="m 88.15175,162.70616 c -2.5e-5,7.008 -3.996021,10.512 -11.988,10.512 -4.896008,0 -8.760005,-1.224 -11.592,-3.672 l 4.14,-7.272 c 2.231992,2.28 4.61999,3.42 7.164,3.42 0.599986,0 1.163986,-0.144 1.692,-0.432 0.647985,-0.336 0.971984,-0.78 0.972,-1.332 -1.6e-5,-0.76799 -1.080015,-1.46399 -3.24,-2.088 -3.096009,-0.91199 -5.124007,-1.65599 -6.084,-2.232 -2.160004,-1.31999 -3.240003,-3.21599 -3.24,-5.688 -3e-6,-6.98398 3.719993,-10.47597 11.16,-10.476 3.479982,3e-5 6.899979,0.88802 10.26,2.664 l 0,0 0,0 -3.924,7.056 c -2.112019,-1.48798 -3.912017,-2.23198 -5.4,-2.232 -1.488014,2e-5 -2.232013,0.40802 -2.232,1.224 -1.3e-5,0.69602 1.055986,1.35602 3.168,1.98 2.903981,0.86401 4.883979,1.65601 5.94,2.376 2.135976,1.44001 3.203975,3.50401 3.204,6.192" id="path3022"/><path d="m 116.66375,171.74216 c -2.13602,1.032 -4.64402,1.548 -7.524,1.548 -4.58401,0 -8.47201,-1.32 -11.664,-3.96 -3.384004,-2.832 -5.076003,-6.49199 -5.076,-10.98 -3e-6,-4.46398 1.703996,-8.11198 5.112,-10.944 3.21599,-2.68798 7.09199,-4.03197 11.628,-4.032 2.63998,3e-5 5.14798,0.54003 7.524,1.62 l 0,11.412 c -2.13602,-2.99998 -4.64402,-4.49998 -7.524,-4.5 -1.89602,2e-5 -3.50402,0.60002 -4.824,1.8 -1.39201,1.22401 -2.08801,2.77201 -2.088,4.644 -1e-5,1.94401 0.65999,3.52801 1.98,4.752 1.31998,1.2 2.96398,1.8 4.932,1.8 2.61598,0 5.12398,-1.37999 7.524,-4.14 l 0,10.98" id="path3024"/><path d="m 147.42237,172.35416 -11.664,0 -5.724,-8.064 0,8.064 -9.21599,0 0,-28.08 11.95199,0 c 3.07199,2e-5 5.61599,0.70802 7.632,2.124 2.25598,1.63202 3.38398,3.92402 3.384,6.876 -2e-5,3.84001 -1.94402,6.46801 -5.832,7.884 l 9.468,11.196 m -13.356,-18.756 c -1e-5,-0.74398 -0.34801,-1.33198 -1.044,-1.764 -0.57601,-0.35998 -1.27201,-0.53998 -2.088,-0.54 l -0.612,0 c -0.048,2e-5 -0.096,0.012 -0.144,0.036 l -0.144,0 0,4.716 c 0.024,1e-5 0.048,0.012 0.072,0.036 l 0.82799,0 c 0.86399,1e-5 1.57199,-0.19199 2.124,-0.576 0.67199,-0.45599 1.00799,-1.09199 1.008,-1.908" id="path3026"/><path d="m 169.20856,172.35416 -18.432,0 0,-28.008 18.432,0 0,7.56 -9.036,0 0,2.772 8.46,0 0,7.56 -8.46,-0.036 0,2.772 9.036,0 0,7.38" id="path3028"/><path d="m 205.97637,172.35416 -10.224,0 -1.98,-4.68 -8.82,0 -2.052,4.68 -10.04399,0 11.87999,-28.08 9.504,0 11.736,28.08 m -14.796,-11.52 -1.76399,-4.824 -1.80001,4.824 3.564,0" id="path3030"/><path d="m 248.18412,172.13816 -9.216,0 -2.19599,-12.636 -7.77601,18 c -1.41601,-3.6 -3.99601,-9.6 -7.74,-18 l -2.196,12.636 -9.216,0 5.22,-28.116 8.82,0 5.112,12.312 5.148,-12.312 8.784,0 5.256,28.116" id="path3032"/></g></g></svg>
